HIERARCHY
ROOT SpineBase
{
  OFFSET 0.000000 0.000000 0.000000
  CHANNELS 6 Xposition Yposition Zposition Zrotation Xrotation Yrotation
  JOINT SpineMid
  {
    OFFSET -0.000000 31.093613 0.000000
    CHANNELS 3 Zrotation Xrotation Yrotation
    JOINT SpineShoulder
    {
      OFFSET 0.494285 23.063964 -0.682962
      CHANNELS 3 Zrotation Xrotation Yrotation
      JOINT Neck
      {
        OFFSET 0.287441 7.628885 -0.608126
        CHANNELS 3 Zrotation Xrotation Yrotation
        JOINT Head
        {
          OFFSET 6.070174 10.534650 4.662111
          CHANNELS 3 Zrotation Xrotation Yrotation
          End Site
          {
            OFFSET 0 0 0
          }
        }
      }
      JOINT ShoulderLeft
      {
        OFFSET -7.996777 -2.206087 -14.486457
        CHANNELS 3 Zrotation Xrotation Yrotation
        JOINT ElbowLeft
        {
          OFFSET -4.982976 -22.156540 -7.085896
          CHANNELS 3 Zrotation Xrotation Yrotation
          JOINT WristLeft
          {
            OFFSET 6.412111 -21.982138 -1.223347
            CHANNELS 3 Zrotation Xrotation Yrotation
            JOINT HandLeft
            {
              OFFSET 1.901856 -6.092911 3.055467
              CHANNELS 3 Zrotation Xrotation Yrotation
              JOINT HandTipLeft
              {
                OFFSET 2.853453 -8.955758 -1.014814
                CHANNELS 3 Zrotation Xrotation Yrotation
                End Site
                {
                  OFFSET 0 0 0
                }
              }
              JOINT ThumbLeft
              {
                OFFSET 2.826582 2.262044 -1.628645
                CHANNELS 3 Zrotation Xrotation Yrotation
                End Site
                {
                  OFFSET 0 0 0
                }
              }
            }
          }
        }
      }
      JOINT ShoulderRight
      {
        OFFSET 8.391439 -5.465265 15.557891
        CHANNELS 3 Zrotation Xrotation Yrotation
        JOINT ElbowRight
        {
          OFFSET 0.712306 -30.819200 2.581061
          CHANNELS 3 Zrotation Xrotation Yrotation
          JOINT WristRight
          {
            OFFSET 7.402015 -24.860862 -9.425630
            CHANNELS 3 Zrotation Xrotation Yrotation
            JOINT HandRight
            {
              OFFSET -2.013480 -3.131919 -2.337733
              CHANNELS 3 Zrotation Xrotation Yrotation
              JOINT HandTipRight
              {
                OFFSET -0.090741 -9.623822 -0.716263
                CHANNELS 3 Zrotation Xrotation Yrotation
                End Site
                {
                  OFFSET 0 0 0
                }
              }
              JOINT ThumbRight
              {
                OFFSET 2.563176 1.018082 -0.323126
                CHANNELS 3 Zrotation Xrotation Yrotation
                End Site
                {
                  OFFSET 0 0 0
                }
              }
            }
          }
        }
      }
    }
  }
  JOINT HipLeft
  {
    OFFSET -2.540575 2.605053 -8.481427
    CHANNELS 3 Zrotation Xrotation Yrotation
    JOINT KneeLeft
    {
      OFFSET -8.444246 -36.301112 -6.696647
      CHANNELS 3 Zrotation Xrotation Yrotation
      JOINT AnkleLeft
      {
        OFFSET -7.809218 -35.955449 6.774571
        CHANNELS 3 Zrotation Xrotation Yrotation
        JOINT FootLeft
        {
          OFFSET 9.423405 -3.185568 -8.320035
          CHANNELS 3 Zrotation Xrotation Yrotation
          End Site
          {
            OFFSET 0 0 0
          }
        }
      }
    }
  }
  JOINT HipRight
  {
    OFFSET 3.667624 -0.144995 1.415022
    CHANNELS 3 Zrotation Xrotation Yrotation
    JOINT KneeRight
    {
      OFFSET 0.196321 -39.104459 2.681875
      CHANNELS 3 Zrotation Xrotation Yrotation
      JOINT AnkleRight
      {
        OFFSET -9.303183 -33.207408 6.135443
        CHANNELS 3 Zrotation Xrotation Yrotation
        JOINT FootRight
        {
          OFFSET 5.550404 -5.553894 -3.999802
          CHANNELS 3 Zrotation Xrotation Yrotation
          End Site
          {
            OFFSET 0 0 0
          }
        }
      }
    }
  }
}
MOTION
Frames: 5
Frame Time: 0.033333
-35.242501 78.360327 269.075684 -0.319922 2.977131 -54.233623 0.777471 0.400124 54.216638 0.472609 0.293167 0.016003 3.594677 -1.135296 -2.881083 0.000000 0.000000 0.000000 -1.854056 -1.921161 0.052392 -3.446849 2.755109 1.333041 -2.691330 9.261040 -0.411197 8.196868 -7.050202 2.288747 0.000000 0.000000 0.000000 0.000000 0.000000 0.000000 5.292785 -0.417818 0.768440 -14.974771 -8.710022 -0.178680 30.562420 -15.655864 -4.082454 -33.276234 22.697134 11.863429 0.000000 0.000000 0.000000 0.000000 0.000000 0.000000 0.783481 -4.448083 54.877787 0.818321 3.900236 -1.910211 2.800206 -2.247075 5.100968 0.000000 0.000000 0.000000 -0.130584 -4.775825 53.834672 2.536482 3.137334 -0.929756 16.562564 17.939545 7.727170 0.000000 0.000000 0.000000
-35.650601 78.625330 268.403135 0.416731 2.999669 -54.724638 0.768036 0.507145 54.714585 0.517817 0.283349 0.058909 3.622232 -1.322117 -3.279966 0.000000 0.000000 0.000000 -2.153530 -1.751170 -0.246012 -2.958536 2.548714 1.484329 -3.060982 10.003591 0.249985 9.058675 -7.219194 1.950074 0.000000 0.000000 0.000000 0.000000 0.000000 0.000000 5.169022 2.156407 0.674063 -14.835982 -13.552845 -2.043035 30.772946 -17.148424 -0.513893 -33.769883 22.853713 10.890816 0.000000 0.000000 0.000000 0.000000 0.000000 0.000000 0.594691 -5.083970 55.372692 0.989911 3.507963 -1.782737 2.628377 -1.582741 4.978476 0.000000 0.000000 0.000000 -0.240242 -5.270846 54.321403 2.625095 2.598193 -0.712160 16.439094 18.661088 7.309132 0.000000 0.000000 0.000000
-36.188019 78.982584 267.519653 1.326080 3.142972 -55.470134 0.798279 0.634983 55.466702 0.701499 0.190169 0.130709 3.987331 -1.616971 -3.955142 0.000000 0.000000 0.000000 -2.381457 -1.294438 -0.769147 -2.653634 1.631389 1.682708 -3.282234 12.335770 1.730163 9.527549 -9.320974 0.918739 0.000000 0.000000 0.000000 0.000000 0.000000 0.000000 4.972096 5.324419 0.500355 -14.636800 -18.796363 -4.004452 28.677634 -15.470967 1.523573 -31.665259 19.374310 8.968880 0.000000 0.000000 0.000000 0.000000 0.000000 0.000000 0.761565 -5.926412 56.166835 0.915679 3.374023 -1.686491 2.601661 -0.967182 4.527719 0.000000 0.000000 0.000000 -0.138004 -5.816614 55.086849 2.444521 1.932212 -0.465937 16.621767 19.355231 6.495430 0.000000 0.000000 0.000000
-36.849261 79.283573 266.327479 2.984077 3.017505 -55.821504 0.883181 0.851117 55.839202 0.683716 0.251455 0.216503 4.796651 -2.229705 -4.931228 0.000000 0.000000 0.000000 -2.358448 -0.925342 -1.587473 -2.122287 0.823567 2.065280 -3.756061 12.518130 2.767502 10.540221 -9.137871 -0.015197 0.000000 0.000000 0.000000 0.000000 0.000000 0.000000 4.030294 7.649292 0.228787 -14.657178 -22.236592 -5.252186 25.650918 -13.997982 3.971345 -28.084333 17.818297 6.040603 0.000000 0.000000 0.000000 0.000000 0.000000 0.000000 0.734397 -7.190863 56.612873 0.386709 3.658781 -1.642095 2.713064 -0.245147 4.582524 0.000000 0.000000 0.000000 -0.244773 -6.885489 55.471818 1.967027 1.548303 -0.209607 16.693618 20.499144 6.000754 0.000000 0.000000 0.000000
-37.579335 79.655973 264.940252 4.911207 2.896746 -56.405350 0.720052 1.047914 56.429050 0.316638 0.621205 0.238947 6.661293 -3.925802 -5.735015 0.000000 0.000000 0.000000 -1.978942 -0.963739 -2.428697 -1.094444 -0.394153 2.444592 -4.300026 12.602850 4.002125 11.508955 -8.676569 -1.207950 0.000000 0.000000 0.000000 0.000000 0.000000 0.000000 4.640130 7.781720 0.190223 -16.867825 -22.414784 -5.694905 21.928285 -14.091321 7.442189 -24.123294 19.000195 2.145821 0.000000 0.000000 0.000000 0.000000 0.000000 0.000000 1.202395 -8.713177 57.448033 -0.538877 4.583351 -1.677852 2.962333 0.292371 4.479374 0.000000 0.000000 0.000000 -0.131962 -8.146094 56.146644 1.938708 1.516414 0.115023 16.259764 21.367636 5.257951 0.000000 0.000000 0.000000
